# xmcd
# Track frame offsets:
# 150
# 17895
# 41787
# 66614
# 84714
#
# Disc length: 1368 seconds
# Revision: 0
# Processed by: cddbd v1.5PL3 Copyright (c) Steve Scherf et al.
# Submitted via: VisiTrax 2.9.7.197 - For more info visit www.synapsa.com
#
DISCID=45055605
DTITLE=Pauline Henry - Too Many People
DYEAR=1900
DGENRE=
TTITLE0=Too Many People
TTITLE1=Too Many People 12 " Mix
TTITLE2=Too Many People Blacksmith Dancehall Mix
TTITLE3=I Still Havent Found What I Am Looking For
TTITLE4=Feel Like Making Love
EXTD=
EXTT0=
EXTT1=
EXTT2=
EXTT3=
EXTT4=
PLAYORDER=
